<?xml version="1.0" encoding="UTF-8"?>
<svg id="Layer_2" data-name="Layer 2" xmlns="http://www.w3.org/2000/svg" viewBox="0 0 1338.36 341.95">
  <defs>
    <style>
      .cls-1 {
        fill: #fff;
      }
    </style>
  </defs>
  <g id="Layer_1-2" data-name="Layer 1">
    <g>
      <path class="cls-1" d="M386.76,22.78h-54.54l-99.97,296.38h41.63l16.65-49.35c.06-.18.09-.33.15-.51,4.43-17.22-21.6-21.18-21.6-21.18l1.24-3.71h149.56l25.22,74.75h41.63L386.76,22.78ZM312.82,203.68l46.67-138.34,46.67,138.34h-93.33Z"/>
      <path class="cls-1" d="M660.29,183.35c25.64-4.37,72.22-23.8,72.22-73.39,0-91.4-88.72-87.15-88.72-87.15h-136.8v296.38h41.63v-84.43c0-21.78-27.57-26-27.57-26v-5.04h112.7c1.99,0,49.41.94,49.41,63.77v51.58h41.63v-54.63c0-49.32-37.65-74.96-64.52-81.08h.03ZM548.61,162.98V63.8h95.17s47.09-.21,47.09,49.59c0,46.76-47.09,49.59-47.09,49.59h-95.17Z"/>
      <path class="cls-1" d="M206.94,98.91s.54-79.33-97.89-79.33S13.92,102.66,13.92,102.66c0,0,.27,68.32,94.12,78.61,79.55,9.2,72,57.22,72,57.22,0,0-.78,43.08-64.83,43.08-78.91,0-73.57-63.65-73.57-63.65H0s-3.26,104.46,114.27,104.46c98.1,0,106.72-71.88,106.72-71.88,0,0,16.17-93.97-101.54-107.81-70.04-9.17-63.35-48.29-63.35-48.29,0,0,.66-34.12,53.75-34.12,60.15,0,55.44,38.61,55.44,38.61h41.63v.03Z"/>
      <path class="cls-1" d="M1323.55,98.91s.54-79.34-97.89-79.34-95.14,83.08-95.14,83.08c0,0,.27,68.32,94.12,78.61,79.55,9.2,72,57.22,72,57.22,0,0-.78,43.08-64.83,43.08-78.91,0-73.57-63.65-73.57-63.65h-41.63s-3.26,104.46,114.27,104.46c98.1,0,106.73-71.88,106.73-71.88,0,0,16.17-93.97-101.54-107.81-70.04-9.17-63.35-48.29-63.35-48.29,0,0,.66-34.12,53.75-34.12,60.15,0,55.45,38.61,55.45,38.61h41.63v.03Z"/>
      <path class="cls-1" d="M924.79,0c-94.45,0-170.98,76.56-170.98,170.98s76.56,170.98,170.98,170.98,170.98-76.56,170.98-170.98S1019.21,0,924.79,0ZM924.79,300.93c-71.76,0-129.95-58.19-129.95-129.95s58.19-129.95,129.95-129.95,129.95,58.19,129.95,129.95-58.19,129.95-129.95,129.95Z"/>
      <path class="cls-1" d="M924.79,74.96c-53.03,0-96.02,42.99-96.02,96.02s42.99,96.02,96.02,96.02,96.02-42.99,96.02-96.02-42.99-96.02-96.02-96.02ZM924.79,227.93c-31.46,0-56.95-25.49-56.95-56.95s25.49-56.95,56.95-56.95,56.95,25.49,56.95,56.95-25.49,56.95-56.95,56.95Z"/>
    </g>
  </g>
</svg>