<svg width="1201" height="1201" viewBox="0 0 1201 1201" fill="none" xmlns="http://www.w3.org/2000/svg">
<path d="M600.777 0.565781C269.337 0.565781 0.777344 269.232 0.777344 600.566C0.777344 931.9 269.443 1200.57 600.777 1200.57C932.111 1200.57 1200.78 931.9 1200.78 600.566C1200.78 269.232 932.111 0.565781 600.777 0.565781ZM600.777 1056.6C348.942 1056.6 144.744 852.401 144.744 600.566C144.744 348.731 348.942 144.532 600.777 144.532C852.612 144.532 1056.81 348.731 1056.81 600.566C1056.81 852.401 852.612 1056.6 600.777 1056.6Z" fill="white"/>
<path d="M600.768 263.621C414.671 263.621 263.824 414.468 263.824 600.565C263.824 786.663 414.671 937.51 600.768 937.51C786.865 937.51 937.712 786.663 937.712 600.565C937.712 414.468 786.865 263.621 600.768 263.621ZM600.768 800.424C490.359 800.424 400.91 710.975 400.91 600.565C400.91 490.156 490.359 400.706 600.768 400.706C711.177 400.706 800.627 490.156 800.627 600.565C800.627 710.975 711.177 800.424 600.768 800.424Z" fill="white"/>
</svg>
